<svg xmlns="http://www.w3.org/2000/svg" viewBox="0 0 448 512" fill="white">
  <path d="M224,202.66A53.34,53.34,0,1,0,277.34,256,53.38,53.38,0,0,0,224,202.66Zm124.71-41a54,54,0,0,0-30.39-30.39c-21-8.3-71-6.44-94.32-6.44s-73.35-1.86-94.32,6.44a54,54,0,0,0-30.39,30.39c-8.3,21-6.44,71-6.44,94.32s-1.86,73.35,6.44,94.32a54,54,0,0,0,30.39,30.39c21,8.3,71,6.44,94.32,6.44s73.35,1.86,94.32-6.44a54,54,0,0,0,30.39-30.39c8.3-21,6.44-71,6.44-94.32S357,182.66,348.71,161.69ZM224,338.66A82.66,82.66,0,1,1,306.66,256,82.75,82.75,0,0,1,224,338.66Zm85.34-148A19.2,19.2,0,1,1,328.54,171,19.18,19.18,0,0,1,309.34,190.66Z"/>
</svg>